# xmcd
#
# Track frame offsets:
# 150
# 19206
# 39195
# 57852
# 79711
# 100126
# 121198
# 137853
# 157922
# 178969
# 197636
# 211574
#
# Disc length: 2911 seconds
#
#
# Revision: 0
# Processed by: cddbd v1.5.1PL2 Copyright (c) Steve Scherf et al.
# Submitted via: FreeRIP 2.945 
#
DISCID=940b5d0c
DTITLE=Shania Twain - The Women In Me
DYEAR=1995
DGENRE=Country
TTITLE0=Home Ain't Where His Heart Is
TTITLE1=Any Man Of Mine
TTITLE2=Whose Bed Have Your Boots Been Under?
TTITLE3=I'm Outta Here!
TTITLE4=The Woman In Me
TTITLE5=Is There Life After Love?
TTITLE6=If It Don't Take Two
TTITLE7=You Win My Love
TTITLE8=Raining On Our Love
TTITLE9=Leaving Is The Only Way Out
TTITLE10=No One Needs To Know
TTITLE11=God Bless The Child
EXTD=
EXTT0=
EXTT1=
EXTT2=
EXTT3=
EXTT4=
EXTT5=
EXTT6=
EXTT7=
EXTT8=
EXTT9=
EXTT10=
EXTT11=
PLAYORDER=
